<svg width="21" height="21" viewBox="0 0 21 21" fill="none" xmlns="http://www.w3.org/2000/svg">
<path fill-rule="evenodd" clip-rule="evenodd" d="M3.48611 1.36482C2.90032 0.779038 1.95057 0.779038 1.36479 1.36482C0.778999 1.95061 0.778999 2.90036 1.36479 3.48614L8.80413 10.9255L1.36479 18.3648C0.779 18.9506 0.778998 19.9004 1.36478 20.4861C1.95057 21.0719 2.90032 21.0719 3.4861 20.4861L10.9255 13.0468L18.3648 20.4861C18.9506 21.0719 19.9003 21.0719 20.4861 20.4861C21.0719 19.9004 21.0719 18.9506 20.4861 18.3648L13.0468 10.9255L20.4861 3.48615C21.0719 2.90036 21.0719 1.95062 20.4862 1.36483C19.9004 0.779042 18.9506 0.779041 18.3648 1.36483L10.9255 8.80418L3.48611 1.36482Z" fill="#FDFDFD"/>
</svg>
